<svg xmlns="http://www.w3.org/2000/svg" xmlns:xlink="http://www.w3.org/1999/xlink" width="500" zoomAndPan="magnify" viewBox="0 0 375 374.999991" height="500" preserveAspectRatio="xMidYMid meet" version="1.0"><defs><g/><clipPath id="6bad7a3a74"><path d="M 169 182 L 206 182 L 206 187.324219 L 169 187.324219 Z M 169 182 " clip-rule="nonzero"/></clipPath><clipPath id="4948ea9203"><path d="M 161.800781 160.324219 L 213.550781 160.324219 L 213.550781 184 L 161.800781 184 Z M 161.800781 160.324219 " clip-rule="nonzero"/></clipPath><clipPath id="d24967f222"><path d="M 355 208 L 374.90625 208 L 374.90625 220 L 355 220 Z M 355 208 " clip-rule="nonzero"/></clipPath><clipPath id="a75037e39b"><path d="M 343 224 L 345 224 L 345 240.789062 L 343 240.789062 Z M 343 224 " clip-rule="nonzero"/></clipPath><clipPath id="edfc6d0b63"><path d="M 339 182.289062 L 351 182.289062 L 351 204 L 339 204 Z M 339 182.289062 " clip-rule="nonzero"/></clipPath></defs><g clip-path="url(#6bad7a3a74)"><path fill="#760000" d="M 187.679688 182.351562 C 187.679688 182.351562 187.675781 182.351562 187.675781 182.351562 C 187.675781 182.351562 187.675781 182.351562 187.671875 182.351562 C 187.667969 182.351562 187.660156 182.351562 187.65625 182.351562 C 178.324219 182.351562 171.90625 183.664062 169.792969 184.839844 C 171.90625 186.007812 178.320312 187.3125 187.644531 187.324219 L 187.710938 187.324219 C 197.035156 187.3125 203.445312 186.007812 205.558594 184.839844 C 203.449219 183.664062 197.03125 182.351562 187.695312 182.351562 C 187.691406 182.351562 187.6875 182.351562 187.679688 182.351562 " fill-opacity="1" fill-rule="nonzero"/></g><g clip-path="url(#4948ea9203)"><path fill="#760000" d="M 210.96875 170.621094 C 210.5 171.011719 210.566406 171.324219 210.4375 171.675781 C 210.367188 171.871094 210.285156 172.121094 209.933594 172.425781 C 209.933594 172.425781 205.417969 177.046875 202.390625 176.058594 C 197.90625 174.589844 200.367188 168.894531 200.367188 168.894531 L 200.828125 167.894531 C 201.058594 167.394531 201.746094 167.191406 202.023438 167.023438 C 202.53125 166.71875 202.699219 166.824219 203 166.175781 C 203.484375 165.121094 203.03125 163.269531 202.882812 162.878906 C 202.453125 163.101562 200.667969 164.074219 200.183594 165.125 C 199.882812 165.773438 200.257812 166.152344 200.398438 166.640625 C 200.472656 166.910156 200.589844 167.261719 200.359375 167.757812 L 199.898438 168.757812 C 199.898438 168.757812 197.136719 174.230469 193.019531 174.269531 C 187.988281 174.3125 187.96875 166.230469 187.96875 166.230469 C 187.96875 165.632812 188.28125 165.304688 188.503906 165.042969 C 188.910156 164.566406 189.519531 164.285156 189.519531 163.511719 C 189.519531 162.289062 188.117188 160.773438 187.710938 160.355469 L 187.710938 160.347656 C 187.699219 160.339844 187.691406 160.332031 187.683594 160.324219 C 187.683594 160.324219 187.679688 160.324219 187.679688 160.328125 C 187.679688 160.324219 187.675781 160.324219 187.675781 160.324219 C 187.675781 160.324219 187.675781 160.324219 187.671875 160.328125 C 187.671875 160.324219 187.667969 160.324219 187.667969 160.324219 C 187.660156 160.332031 187.652344 160.339844 187.644531 160.347656 L 187.644531 160.355469 C 187.234375 160.773438 185.832031 162.289062 185.832031 163.511719 C 185.832031 164.285156 186.441406 164.566406 186.847656 165.042969 C 187.070312 165.304688 187.382812 165.632812 187.382812 166.230469 C 187.382812 166.230469 187.363281 174.3125 182.332031 174.269531 C 178.214844 174.230469 175.453125 168.757812 175.453125 168.757812 L 174.992188 167.757812 C 174.761719 167.261719 174.878906 166.910156 174.957031 166.640625 C 175.09375 166.152344 175.46875 165.773438 175.167969 165.125 C 174.683594 164.074219 172.902344 163.101562 172.46875 162.878906 C 172.324219 163.269531 171.867188 165.121094 172.355469 166.175781 C 172.65625 166.824219 172.820312 166.71875 173.328125 167.023438 C 173.605469 167.191406 174.292969 167.394531 174.523438 167.894531 L 174.988281 168.894531 C 174.988281 168.894531 177.449219 174.589844 172.964844 176.058594 C 169.9375 177.046875 165.417969 172.425781 165.417969 172.425781 C 165.066406 172.121094 164.988281 171.871094 164.914062 171.675781 C 164.785156 171.324219 164.855469 171.011719 164.386719 170.621094 C 163.578125 169.953125 162.125 169.554688 161.824219 169.484375 C 161.90625 169.769531 162.53125 171.132812 163.269531 171.773438 C 163.726562 172.171875 164.15625 172.039062 164.539062 172.269531 C 168.832031 174.875 169.175781 183.960938 169.175781 183.960938 L 169.210938 183.960938 C 169.808594 182.574219 177.832031 181.167969 187.648438 181.167969 C 187.652344 181.167969 187.699219 181.167969 187.703125 181.167969 C 197.519531 181.167969 205.542969 182.574219 206.140625 183.960938 L 206.179688 183.960938 C 206.179688 183.960938 206.519531 174.875 210.8125 172.269531 C 211.195312 172.039062 211.625 172.171875 212.082031 171.773438 C 212.820312 171.132812 213.445312 169.769531 213.527344 169.484375 C 213.226562 169.554688 211.773438 169.953125 210.96875 170.621094 " fill-opacity="1" fill-rule="nonzero"/></g><g clip-path="url(#d24967f222)"><path fill="#760000" d="M 374.242188 217.027344 C 373.941406 217.441406 373.359375 217.527344 372.949219 217.226562 C 372.535156 216.921875 372.445312 216.339844 372.75 215.929688 C 373.050781 215.515625 373.628906 215.425781 374.042969 215.730469 C 373.941406 215.652344 373.835938 215.578125 374.042969 215.730469 C 374.117188 215.78125 374.152344 215.808594 374.160156 215.816406 C 374.144531 215.804688 374.09375 215.765625 374.042969 215.730469 C 374.453125 216.03125 374.542969 216.613281 374.242188 217.027344 Z M 372.226562 208.824219 C 372.738281 208.824219 373.152344 209.238281 373.152344 209.75 C 373.152344 210.265625 372.738281 210.679688 372.226562 210.679688 C 371.714844 210.679688 371.300781 210.265625 371.300781 209.75 C 371.300781 209.242188 371.714844 208.824219 372.226562 208.824219 Z M 374.210938 215.5 C 373.757812 215.167969 373.148438 215.199219 372.730469 215.539062 L 370.917969 214.230469 L 361.621094 214.234375 L 364.003906 210.042969 L 371.050781 210.039062 C 371.179688 210.570312 371.65625 210.964844 372.226562 210.964844 C 372.894531 210.964844 373.4375 210.421875 373.4375 209.75 C 373.4375 209.082031 372.894531 208.539062 372.226562 208.539062 C 371.65625 208.539062 371.179688 208.9375 371.050781 209.46875 L 363.671875 209.472656 L 360.964844 214.238281 L 355.644531 214.242188 L 355.644531 215.109375 L 360.539062 218.519531 L 365.625 218.515625 C 365.753906 218.96875 366.164062 219.300781 366.65625 219.300781 C 367.246094 219.300781 367.722656 218.820312 367.722656 218.230469 C 367.722656 217.636719 367.246094 217.160156 366.65625 217.160156 C 366.164062 217.160156 365.75 217.492188 365.625 217.945312 L 360.714844 217.949219 L 356.207031 214.808594 L 370.734375 214.800781 L 372.386719 215.992188 C 372.164062 216.5 372.3125 217.113281 372.78125 217.457031 C 373.320312 217.851562 374.074219 217.734375 374.472656 217.195312 C 374.863281 216.65625 374.75 215.894531 374.210938 215.5 " fill-opacity="1" fill-rule="nonzero"/></g><path fill="#760000" d="M 315.773438 215.730469 C 315.71875 215.765625 315.671875 215.804688 315.65625 215.816406 C 315.664062 215.808594 315.699219 215.78125 315.773438 215.730469 C 315.976562 215.578125 315.875 215.652344 315.773438 215.730469 C 316.183594 215.425781 316.765625 215.515625 317.066406 215.929688 C 317.367188 216.339844 317.28125 216.921875 316.867188 217.226562 C 316.457031 217.527344 315.875 217.441406 315.574219 217.027344 C 315.269531 216.613281 315.359375 216.03125 315.773438 215.730469 Z M 318.515625 209.75 C 318.515625 210.265625 318.097656 210.679688 317.589844 210.679688 C 317.078125 210.679688 316.664062 210.265625 316.664062 209.75 C 316.664062 209.238281 317.078125 208.824219 317.589844 208.824219 C 318.101562 208.824219 318.515625 209.242188 318.515625 209.75 Z M 315.34375 217.195312 C 315.738281 217.734375 316.496094 217.851562 317.035156 217.457031 C 317.5 217.113281 317.648438 216.5 317.425781 215.992188 L 319.082031 214.800781 L 333.605469 214.808594 L 329.101562 217.949219 L 324.1875 217.945312 C 324.066406 217.492188 323.652344 217.160156 323.160156 217.160156 C 322.570312 217.160156 322.09375 217.636719 322.09375 218.230469 C 322.089844 218.820312 322.570312 219.300781 323.15625 219.300781 C 323.648438 219.300781 324.0625 218.96875 324.1875 218.515625 L 329.277344 218.519531 L 334.171875 215.109375 L 334.171875 214.242188 L 328.851562 214.238281 L 326.144531 209.472656 L 318.765625 209.46875 C 318.636719 208.9375 318.160156 208.539062 317.589844 208.539062 C 316.921875 208.539062 316.378906 209.082031 316.378906 209.75 C 316.378906 210.421875 316.921875 210.964844 317.589844 210.964844 C 318.15625 210.964844 318.636719 210.570312 318.761719 210.039062 L 325.8125 210.042969 L 328.195312 214.234375 L 318.898438 214.230469 L 317.082031 215.539062 C 316.667969 215.199219 316.058594 215.167969 315.605469 215.5 C 315.066406 215.894531 314.949219 216.65625 315.34375 217.195312 " fill-opacity="1" fill-rule="nonzero"/><path fill="#760000" d="M 346.207031 237.535156 L 346.15625 224.910156 C 346.007812 224.910156 345.859375 224.910156 345.707031 224.90625 L 345.757812 237.539062 C 345.40625 237.640625 345.148438 237.96875 345.152344 238.359375 C 345.15625 238.824219 345.539062 239.195312 346.003906 239.191406 C 346.464844 239.1875 346.839844 238.804688 346.835938 238.339844 C 346.828125 237.949219 346.5625 237.628906 346.207031 237.535156 " fill-opacity="1" fill-rule="nonzero"/><path fill="#760000" d="M 351.492188 228.5 C 351.21875 228.226562 350.804688 228.183594 350.480469 228.367188 L 349.90625 227.792969 L 349.960938 223.820312 C 349.820312 223.945312 349.671875 224.054688 349.511719 224.15625 L 349.460938 227.980469 L 350.167969 228.683594 C 349.984375 229.007812 350.03125 229.421875 350.304688 229.695312 C 350.636719 230.023438 351.167969 230.023438 351.496094 229.695312 C 351.824219 229.363281 351.820312 228.828125 351.492188 228.5 " fill-opacity="1" fill-rule="nonzero"/><path fill="#760000" d="M 347.929688 234.589844 C 347.527344 234.59375 347.199219 234.269531 347.191406 233.867188 C 347.1875 233.464844 347.511719 233.132812 347.914062 233.128906 C 348.316406 233.125 348.644531 233.449219 348.652344 233.851562 C 348.65625 234.253906 348.335938 234.585938 347.929688 234.589844 Z M 348.136719 232.929688 L 348.132812 224.699219 C 347.988281 224.734375 347.835938 224.761719 347.6875 224.789062 L 347.6875 232.933594 C 347.269531 233.039062 346.964844 233.421875 346.96875 233.871094 C 346.976562 234.398438 347.410156 234.820312 347.933594 234.816406 C 348.460938 234.808594 348.882812 234.375 348.875 233.847656 C 348.871094 233.398438 348.554688 233.027344 348.136719 232.929688 " fill-opacity="1" fill-rule="nonzero"/><g clip-path="url(#a75037e39b)"><path fill="#760000" d="M 344.097656 239.136719 L 344.027344 224.777344 C 343.878906 224.761719 343.726562 224.742188 343.582031 224.71875 L 343.648438 239.144531 C 343.296875 239.246094 343.039062 239.574219 343.042969 239.964844 C 343.046875 240.429688 343.429688 240.800781 343.894531 240.796875 C 344.359375 240.792969 344.730469 240.410156 344.726562 239.941406 C 344.722656 239.554688 344.457031 239.234375 344.097656 239.136719 " fill-opacity="1" fill-rule="nonzero"/></g><path fill="#760000" d="M 340.207031 224.09375 C 340.050781 224.058594 339.902344 224.027344 339.757812 223.996094 L 339.714844 228.828125 L 339.15625 229.417969 C 338.828125 229.238281 338.417969 229.292969 338.148438 229.574219 C 337.824219 229.910156 337.835938 230.445312 338.171875 230.765625 C 338.507812 231.089844 339.039062 231.078125 339.363281 230.742188 C 339.628906 230.460938 339.664062 230.042969 339.476562 229.726562 L 340.164062 229.007812 L 340.207031 224.09375 " fill-opacity="1" fill-rule="nonzero"/><path fill="#760000" d="M 341.875 237.605469 C 341.472656 237.609375 341.140625 237.285156 341.136719 236.882812 C 341.132812 236.480469 341.453125 236.148438 341.855469 236.144531 C 342.257812 236.136719 342.589844 236.464844 342.59375 236.863281 C 342.597656 237.269531 342.277344 237.601562 341.875 237.605469 Z M 342.078125 235.945312 L 342.042969 224.46875 C 341.890625 224.441406 341.742188 224.414062 341.59375 224.382812 L 341.632812 235.949219 C 341.214844 236.054688 340.90625 236.4375 340.914062 236.886719 C 340.917969 237.414062 341.351562 237.835938 341.875 237.832031 C 342.402344 237.824219 342.824219 237.390625 342.816406 236.863281 C 342.8125 236.414062 342.496094 236.042969 342.078125 235.945312 " fill-opacity="1" fill-rule="nonzero"/><path fill="#760000" d="M 322.523438 204.027344 L 334.425781 210.121094 C 334.496094 209.980469 334.570312 209.839844 334.644531 209.699219 L 322.738281 203.601562 C 322.8125 203.214844 322.628906 202.8125 322.261719 202.628906 C 321.820312 202.40625 321.285156 202.585938 321.066406 203.027344 C 320.84375 203.46875 321.023438 204.007812 321.460938 204.226562 C 321.828125 204.414062 322.261719 204.316406 322.523438 204.027344 " fill-opacity="1" fill-rule="nonzero"/><path fill="#760000" d="M 324.453125 207.085938 C 324.644531 206.707031 325.109375 206.550781 325.492188 206.742188 C 325.871094 206.933594 326.027344 207.402344 325.835938 207.785156 C 325.644531 208.167969 325.179688 208.320312 324.800781 208.128906 C 324.417969 207.9375 324.261719 207.472656 324.453125 207.085938 Z M 325.917969 208.089844 L 333.65625 212.089844 C 333.699219 211.933594 333.742188 211.78125 333.792969 211.625 L 326.128906 207.664062 C 326.234375 207.21875 326.023438 206.742188 325.597656 206.53125 C 325.101562 206.277344 324.492188 206.480469 324.242188 206.980469 C 323.992188 207.480469 324.191406 208.09375 324.691406 208.34375 C 325.117188 208.554688 325.625 208.4375 325.917969 208.089844 " fill-opacity="1" fill-rule="nonzero"/><path fill="#760000" d="M 362.675781 197.371094 L 352.109375 205.832031 C 352.210938 205.957031 352.308594 206.082031 352.40625 206.210938 L 362.976562 197.746094 C 363.300781 197.976562 363.746094 197.976562 364.070312 197.714844 C 364.457031 197.398438 364.515625 196.828125 364.203125 196.441406 C 363.886719 196.050781 363.320312 195.992188 362.929688 196.308594 C 362.609375 196.570312 362.515625 197.007812 362.675781 197.371094 " fill-opacity="1" fill-rule="nonzero"/><path fill="#760000" d="M 351.570312 198.933594 C 351.523438 199.347656 351.761719 199.726562 352.128906 199.875 L 352.03125 200.742188 L 348.660156 203.347656 C 348.855469 203.382812 349.050781 203.433594 349.242188 203.503906 L 352.488281 200.992188 L 352.605469 199.929688 C 352.996094 199.867188 353.316406 199.550781 353.363281 199.140625 C 353.421875 198.640625 353.0625 198.191406 352.566406 198.136719 C 352.070312 198.082031 351.625 198.4375 351.570312 198.933594 " fill-opacity="1" fill-rule="nonzero"/><path fill="#760000" d="M 359.054688 197.878906 C 359.328125 198.214844 359.277344 198.710938 358.941406 198.984375 C 358.605469 199.257812 358.109375 199.207031 357.839844 198.871094 C 357.566406 198.53125 357.617188 198.039062 357.953125 197.765625 C 358.289062 197.492188 358.78125 197.542969 359.054688 197.878906 Z M 357.523438 198.816406 L 350.617188 204.304688 C 350.742188 204.402344 350.867188 204.507812 350.992188 204.621094 L 357.828125 199.1875 C 358.195312 199.46875 358.71875 199.476562 359.089844 199.171875 C 359.53125 198.816406 359.597656 198.167969 359.242188 197.726562 C 358.886719 197.289062 358.238281 197.222656 357.800781 197.578125 C 357.429688 197.882812 357.324219 198.398438 357.523438 198.816406 " fill-opacity="1" fill-rule="nonzero"/><path fill="#760000" d="M 365.425781 198.082031 L 353.417969 207.714844 C 353.503906 207.851562 353.585938 207.992188 353.667969 208.128906 L 365.730469 198.457031 C 366.054688 198.6875 366.5 198.6875 366.824219 198.425781 C 367.210938 198.109375 367.269531 197.539062 366.953125 197.148438 C 366.640625 196.761719 366.074219 196.703125 365.683594 197.015625 C 365.363281 197.277344 365.269531 197.71875 365.425781 198.082031 " fill-opacity="1" fill-rule="nonzero"/><path fill="#760000" d="M 355.390625 211.394531 C 355.46875 211.550781 355.539062 211.699219 355.609375 211.835938 L 359.695312 208.652344 L 360.5625 208.734375 C 360.628906 209.125 360.949219 209.4375 361.363281 209.480469 C 361.863281 209.527344 362.300781 209.160156 362.351562 208.664062 C 362.394531 208.164062 362.03125 207.722656 361.535156 207.675781 C 361.121094 207.636719 360.746094 207.886719 360.605469 208.253906 L 359.546875 208.15625 L 355.390625 211.394531 " fill-opacity="1" fill-rule="nonzero"/><path fill="#760000" d="M 365.625 200.980469 C 365.894531 201.316406 365.84375 201.8125 365.507812 202.085938 C 365.171875 202.359375 364.679688 202.308594 364.40625 201.972656 C 364.136719 201.632812 364.1875 201.140625 364.519531 200.867188 C 364.855469 200.59375 365.351562 200.644531 365.625 200.980469 Z M 364.09375 201.917969 L 354.484375 209.59375 C 354.5625 209.742188 354.636719 209.886719 354.710938 210.03125 L 364.394531 202.289062 C 364.761719 202.570312 365.285156 202.578125 365.660156 202.273438 C 366.097656 201.917969 366.164062 201.269531 365.808594 200.828125 C 365.453125 200.390625 364.808594 200.324219 364.371094 200.679688 C 363.996094 200.984375 363.894531 201.5 364.09375 201.917969 " fill-opacity="1" fill-rule="nonzero"/><g clip-path="url(#edfc6d0b63)"><path fill="#760000" d="M 345.886719 190.464844 C 345.484375 190.648438 345.007812 190.46875 344.828125 190.0625 C 344.648438 189.660156 344.828125 189.183594 345.230469 189.003906 C 345.632812 188.820312 346.105469 189 346.285156 189.40625 C 346.46875 189.808594 346.289062 190.285156 345.886719 190.464844 Z M 343.5625 183.066406 C 343.417969 182.574219 342.90625 182.292969 342.417969 182.4375 C 341.929688 182.578125 341.648438 183.089844 341.789062 183.582031 C 341.90625 183.988281 342.28125 184.253906 342.6875 184.25 L 343.605469 187.433594 L 340.824219 190.882812 L 342.617188 195.046875 L 339.570312 198.972656 L 340.914062 203.078125 L 347.074219 203.082031 L 350.082031 199.203125 L 346.199219 190.558594 C 346.570312 190.269531 346.710938 189.753906 346.511719 189.304688 C 346.53125 189.351562 346.554688 189.398438 346.566406 189.425781 C 346.554688 189.402344 346.539062 189.367188 346.511719 189.304688 C 346.46875 189.210938 346.449219 189.167969 346.445312 189.15625 C 346.449219 189.171875 346.480469 189.238281 346.511719 189.304688 C 346.273438 188.777344 345.652344 188.539062 345.128906 188.777344 C 344.601562 189.015625 344.367188 189.640625 344.605469 190.164062 C 344.808594 190.617188 345.289062 190.851562 345.753906 190.765625 L 349.511719 199.132812 L 346.832031 202.589844 L 341.269531 202.585938 L 340.121094 199.066406 L 343.183594 195.117188 L 341.390625 190.960938 L 342.070312 190.117188 L 344.480469 194.957031 L 341.113281 199.300781 L 342.160156 201.492188 L 346.238281 201.484375 L 348.023438 199.171875 L 347.496094 197.945312 C 347.8125 197.691406 347.933594 197.25 347.765625 196.859375 C 347.566406 196.390625 347.019531 196.175781 346.554688 196.375 C 346.085938 196.578125 345.871094 197.121094 346.070312 197.589844 C 346.238281 197.984375 346.644531 198.195312 347.046875 198.140625 L 347.457031 199.101562 L 346.007812 200.980469 L 342.476562 201.015625 L 341.6875 199.359375 L 345.058594 195.015625 L 342.410156 189.699219 L 344.148438 187.542969 L 343.15625 184.113281 C 343.503906 183.898438 343.679688 183.476562 343.5625 183.066406 " fill-opacity="1" fill-rule="nonzero"/></g><path fill="#760000" d="M 329.402344 195.707031 C 329.214844 196.128906 328.71875 196.320312 328.300781 196.132812 C 327.878906 195.945312 327.6875 195.453125 327.875 195.03125 C 328.0625 194.609375 328.554688 194.417969 328.976562 194.605469 C 329.398438 194.792969 329.585938 195.289062 329.402344 195.707031 Z M 322.464844 191.582031 C 322.015625 191.300781 321.421875 191.4375 321.140625 191.886719 C 320.859375 192.339844 320.996094 192.933594 321.445312 193.214844 C 321.820312 193.453125 322.292969 193.394531 322.605469 193.109375 L 325.527344 194.941406 L 325.757812 199.558594 L 330.035156 201.542969 L 330.394531 206.714844 L 334.28125 208.964844 L 339.066406 204.675781 L 338.714844 199.570312 L 329.710938 195.5625 C 329.796875 195.078125 329.546875 194.578125 329.078125 194.371094 C 329.128906 194.394531 329.175781 194.414062 329.207031 194.425781 C 329.183594 194.417969 329.144531 194.398438 329.078125 194.371094 C 328.980469 194.328125 328.9375 194.308594 328.925781 194.300781 C 328.941406 194.308594 329.011719 194.339844 329.078125 194.371094 C 328.53125 194.125 327.886719 194.375 327.640625 194.925781 C 327.398438 195.476562 327.648438 196.125 328.195312 196.367188 C 328.664062 196.578125 329.203125 196.421875 329.503906 196.03125 L 338.226562 199.914062 L 338.539062 204.464844 L 334.21875 208.335938 L 330.882812 206.40625 L 330.527344 201.203125 L 326.253906 199.226562 L 326.195312 198.097656 L 331.421875 200.175781 L 331.816406 205.894531 L 334.148438 206.867188 L 337.3125 204.019531 L 337.097656 200.980469 L 335.835938 200.394531 C 335.902344 199.976562 335.691406 199.550781 335.289062 199.363281 C 334.808594 199.136719 334.238281 199.351562 334.015625 199.832031 C 333.792969 200.316406 334 200.890625 334.484375 201.113281 C 334.886719 201.300781 335.347656 201.183594 335.621094 200.859375 L 336.605469 201.316406 L 336.785156 203.789062 L 334.066406 206.277344 L 332.304688 205.542969 L 331.910156 199.816406 L 326.167969 197.535156 L 326.023438 194.648438 L 322.875 192.675781 C 322.996094 192.269531 322.839844 191.816406 322.464844 191.582031 " fill-opacity="1" fill-rule="nonzero"/><path fill="#760000" d="M 361.667969 230.777344 C 361.8125 230.339844 362.285156 230.101562 362.722656 230.246094 C 363.15625 230.386719 363.398438 230.863281 363.253906 231.300781 C 363.109375 231.738281 362.636719 231.976562 362.199219 231.832031 C 361.761719 231.6875 361.523438 231.214844 361.667969 230.777344 Z M 368.980469 234.1875 C 369.457031 234.421875 370.03125 234.226562 370.269531 233.75 C 370.503906 233.273438 370.308594 232.695312 369.832031 232.457031 C 369.433594 232.261719 368.96875 232.367188 368.6875 232.679688 L 365.601562 231.152344 L 364.910156 226.578125 L 360.453125 225.035156 L 359.582031 219.929688 L 355.488281 218.078125 L 351.15625 222.824219 L 352.015625 227.871094 L 361.375 230.953125 C 361.335938 231.445312 361.636719 231.917969 362.121094 232.078125 C 362.070312 232.058594 362.019531 232.042969 361.988281 232.035156 C 362.011719 232.039062 362.054688 232.054688 362.121094 232.078125 C 362.222656 232.109375 362.269531 232.125 362.28125 232.128906 C 362.265625 232.125 362.191406 232.101562 362.121094 232.078125 C 362.691406 232.265625 363.308594 231.953125 363.496094 231.378906 C 363.683594 230.808594 363.371094 230.1875 362.800781 230 C 362.3125 229.839844 361.789062 230.046875 361.53125 230.464844 L 352.46875 227.480469 L 351.703125 222.984375 L 355.613281 218.695312 L 359.125 220.285156 L 360 225.421875 L 364.449219 226.964844 L 364.617188 228.082031 L 359.210938 226.539062 L 358.25 220.886719 L 355.832031 220.152344 L 352.964844 223.300781 L 353.484375 226.304688 L 354.796875 226.761719 C 354.773438 227.183594 355.023438 227.585938 355.441406 227.734375 C 355.945312 227.90625 356.492188 227.640625 356.664062 227.136719 C 356.839844 226.632812 356.574219 226.085938 356.070312 225.910156 C 355.652344 225.765625 355.203125 225.925781 354.964844 226.277344 L 353.9375 225.917969 L 353.515625 223.480469 L 355.972656 220.730469 L 357.796875 221.285156 L 358.761719 226.941406 L 364.703125 228.636719 L 365.136719 231.492188 L 368.460938 233.140625 C 368.382812 233.558594 368.582031 233.992188 368.980469 234.1875 " fill-opacity="1" fill-rule="nonzero"/><path fill="#760000" d="M 328.035156 231.5 C 327.617188 231.640625 327.160156 231.414062 327.019531 230.996094 C 326.878906 230.578125 327.105469 230.121094 327.523438 229.980469 C 327.941406 229.839844 328.398438 230.066406 328.539062 230.484375 C 328.679688 230.902344 328.453125 231.359375 328.035156 231.5 Z M 322.035156 232.800781 L 325.214844 231.195312 L 325.609375 228.453125 L 331.300781 226.785156 L 332.1875 221.347656 L 333.933594 220.804688 L 336.308594 223.425781 L 335.921875 225.769531 L 334.9375 226.121094 C 334.707031 225.785156 334.273438 225.632812 333.875 225.777344 C 333.394531 225.945312 333.140625 226.476562 333.3125 226.957031 C 333.484375 227.4375 334.011719 227.691406 334.488281 227.519531 C 334.890625 227.378906 335.128906 226.988281 335.101562 226.582031 L 336.359375 226.136719 L 336.835938 223.25 L 334.066406 220.25 L 331.75 220.96875 L 330.867188 226.398438 L 325.6875 227.917969 L 325.84375 226.84375 L 330.101562 225.335938 L 330.90625 220.398438 L 334.261719 218.851562 L 338.046875 222.9375 L 337.34375 227.257812 L 328.664062 230.183594 C 328.414062 229.785156 327.914062 229.589844 327.445312 229.746094 C 326.898438 229.929688 326.605469 230.527344 326.789062 231.074219 C 326.972656 231.621094 327.566406 231.917969 328.113281 231.734375 C 328.042969 231.757812 327.972656 231.78125 327.957031 231.785156 C 327.96875 231.78125 328.015625 231.769531 328.113281 231.734375 C 328.175781 231.714844 328.214844 231.699219 328.242188 231.691406 C 328.207031 231.703125 328.160156 231.71875 328.113281 231.734375 C 328.578125 231.578125 328.859375 231.121094 328.820312 230.652344 L 337.78125 227.628906 L 338.570312 222.78125 L 334.378906 218.253906 L 330.464844 220.058594 L 329.664062 224.96875 L 325.398438 226.480469 L 324.765625 230.871094 L 321.8125 232.359375 C 321.542969 232.058594 321.09375 231.964844 320.714844 232.15625 C 320.257812 232.386719 320.078125 232.941406 320.308594 233.398438 C 320.535156 233.851562 321.089844 234.035156 321.546875 233.808594 C 321.925781 233.617188 322.113281 233.199219 322.035156 232.800781 " fill-opacity="1" fill-rule="nonzero"/><path fill="#760000" d="M 344.828125 203.285156 C 338.976562 203.285156 334.21875 208.058594 334.21875 213.921875 C 334.21875 219.785156 338.976562 224.554688 344.828125 224.554688 C 350.675781 224.554688 355.433594 219.785156 355.433594 213.921875 C 355.433594 208.058594 350.675781 203.285156 344.828125 203.285156 Z M 344.828125 225.410156 C 338.507812 225.410156 333.367188 220.253906 333.367188 213.921875 C 333.367188 207.585938 338.507812 202.433594 344.828125 202.433594 C 351.144531 202.433594 356.285156 207.585938 356.285156 213.921875 C 356.285156 220.253906 351.144531 225.410156 344.828125 225.410156 " fill-opacity="1" fill-rule="nonzero"/><g fill="#760000" fill-opacity="1"><g transform="translate(6.894576, 236.816997)"><g><path d="M 28.15625 0.671875 C 23.289062 0.671875 18.921875 -0.328125 15.046875 -2.328125 C 11.179688 -4.335938 8.160156 -7.125 5.984375 -10.6875 C 3.804688 -14.25 2.71875 -18.289062 2.71875 -22.8125 C 2.71875 -27.332031 3.804688 -31.375 5.984375 -34.9375 C 8.160156 -38.5 11.179688 -41.285156 15.046875 -43.296875 C 18.921875 -45.304688 23.289062 -46.3125 28.15625 -46.3125 C 32.957031 -46.3125 37.15625 -45.304688 40.75 -43.296875 C 44.34375 -41.285156 46.957031 -38.414062 48.59375 -34.6875 L 38.328125 -29.171875 C 35.953125 -33.359375 32.535156 -35.453125 28.078125 -35.453125 C 24.628906 -35.453125 21.769531 -34.320312 19.5 -32.0625 C 17.238281 -29.800781 16.109375 -26.71875 16.109375 -22.8125 C 16.109375 -18.914062 17.238281 -15.832031 19.5 -13.5625 C 21.769531 -11.300781 24.628906 -10.171875 28.078125 -10.171875 C 32.597656 -10.171875 36.015625 -12.265625 38.328125 -16.453125 L 48.59375 -10.859375 C 46.957031 -7.234375 44.34375 -4.40625 40.75 -2.375 C 37.15625 -0.34375 32.957031 0.671875 28.15625 0.671875 Z M 28.15625 0.671875 "/></g></g></g><g fill="#760000" fill-opacity="1"><g transform="translate(57.014933, 236.816997)"><g><path d="M 51.390625 -45.625 L 30.78125 2.796875 C 28.695312 8.054688 26.113281 11.757812 23.03125 13.90625 C 19.945312 16.050781 16.226562 17.125 11.875 17.125 C 9.5 17.125 7.148438 16.753906 4.828125 16.015625 C 2.515625 15.285156 0.625 14.269531 -0.84375 12.96875 L 3.984375 3.5625 C 5.003906 4.46875 6.175781 5.175781 7.5 5.6875 C 8.832031 6.195312 10.148438 6.453125 11.453125 6.453125 C 13.253906 6.453125 14.722656 6.007812 15.859375 5.125 C 16.992188 4.25 18.007812 2.796875 18.90625 0.765625 L 19.078125 0.34375 L -0.671875 -45.625 L 12.96875 -45.625 L 25.78125 -14.671875 L 38.671875 -45.625 Z M 51.390625 -45.625 "/></g></g></g><g fill="#760000" fill-opacity="1"><g transform="translate(107.728926, 236.816997)"><g><path d="M 33.078125 -46.3125 C 37.316406 -46.3125 41.175781 -45.332031 44.65625 -43.375 C 48.132812 -41.425781 50.863281 -38.6875 52.84375 -35.15625 C 54.820312 -31.625 55.8125 -27.507812 55.8125 -22.8125 C 55.8125 -18.125 54.820312 -14.007812 52.84375 -10.46875 C 50.863281 -6.9375 48.132812 -4.195312 44.65625 -2.25 C 41.175781 -0.300781 37.316406 0.671875 33.078125 0.671875 C 26.796875 0.671875 22.019531 -1.304688 18.75 -5.265625 L 18.75 0 L 6.109375 0 L 6.109375 -62.9375 L 19.34375 -62.9375 L 19.34375 -40.796875 C 22.675781 -44.472656 27.253906 -46.3125 33.078125 -46.3125 Z M 30.78125 -10.171875 C 34.175781 -10.171875 36.960938 -11.316406 39.140625 -13.609375 C 41.316406 -15.898438 42.40625 -18.96875 42.40625 -22.8125 C 42.40625 -26.65625 41.316406 -29.722656 39.140625 -32.015625 C 36.960938 -34.304688 34.175781 -35.453125 30.78125 -35.453125 C 27.394531 -35.453125 24.613281 -34.304688 22.4375 -32.015625 C 20.257812 -29.722656 19.171875 -26.65625 19.171875 -22.8125 C 19.171875 -18.96875 20.257812 -15.898438 22.4375 -13.609375 C 24.613281 -11.316406 27.394531 -10.171875 30.78125 -10.171875 Z M 30.78125 -10.171875 "/></g></g></g><g fill="#760000" fill-opacity="1"><g transform="translate(166.245073, 236.816997)"><g><path d="M 50.796875 -22.640625 C 50.796875 -22.472656 50.710938 -21.285156 50.546875 -19.078125 L 16.03125 -19.078125 C 16.65625 -16.253906 18.125 -14.019531 20.4375 -12.375 C 22.757812 -10.738281 25.644531 -9.921875 29.09375 -9.921875 C 31.46875 -9.921875 33.570312 -10.273438 35.40625 -10.984375 C 37.25 -11.691406 38.960938 -12.804688 40.546875 -14.328125 L 47.578125 -6.703125 C 43.285156 -1.785156 37.007812 0.671875 28.75 0.671875 C 23.601562 0.671875 19.050781 -0.328125 15.09375 -2.328125 C 11.132812 -4.335938 8.082031 -7.125 5.9375 -10.6875 C 3.789062 -14.25 2.71875 -18.289062 2.71875 -22.8125 C 2.71875 -27.28125 3.773438 -31.304688 5.890625 -34.890625 C 8.015625 -38.484375 10.925781 -41.285156 14.625 -43.296875 C 18.332031 -45.304688 22.476562 -46.3125 27.0625 -46.3125 C 31.519531 -46.3125 35.554688 -45.347656 39.171875 -43.421875 C 42.796875 -41.503906 45.640625 -38.75 47.703125 -35.15625 C 49.765625 -31.5625 50.796875 -27.390625 50.796875 -22.640625 Z M 27.140625 -36.296875 C 24.140625 -36.296875 21.617188 -35.445312 19.578125 -33.75 C 17.546875 -32.0625 16.304688 -29.742188 15.859375 -26.796875 L 38.328125 -26.796875 C 37.878906 -29.679688 36.632812 -31.984375 34.59375 -33.703125 C 32.5625 -35.429688 30.078125 -36.296875 27.140625 -36.296875 Z M 27.140625 -36.296875 "/></g></g></g><g fill="#760000" fill-opacity="1"><g transform="translate(219.757663, 236.816997)"><g><path d="M 21.453125 0.671875 C 17.671875 0.671875 13.96875 0.207031 10.34375 -0.71875 C 6.726562 -1.65625 3.847656 -2.828125 1.703125 -4.234375 L 6.109375 -13.734375 C 8.140625 -12.429688 10.597656 -11.367188 13.484375 -10.546875 C 16.367188 -9.734375 19.195312 -9.328125 21.96875 -9.328125 C 27.5625 -9.328125 30.359375 -10.710938 30.359375 -13.484375 C 30.359375 -14.785156 29.59375 -15.71875 28.0625 -16.28125 C 26.539062 -16.84375 24.195312 -17.320312 21.03125 -17.71875 C 17.300781 -18.289062 14.21875 -18.941406 11.78125 -19.671875 C 9.351562 -20.410156 7.25 -21.710938 5.46875 -23.578125 C 3.6875 -25.441406 2.796875 -28.097656 2.796875 -31.546875 C 2.796875 -34.429688 3.628906 -36.988281 5.296875 -39.21875 C 6.960938 -41.457031 9.394531 -43.195312 12.59375 -44.4375 C 15.789062 -45.6875 19.566406 -46.3125 23.921875 -46.3125 C 27.140625 -46.3125 30.34375 -45.957031 33.53125 -45.25 C 36.726562 -44.539062 39.375 -43.566406 41.46875 -42.328125 L 37.0625 -32.90625 C 33.050781 -35.164062 28.671875 -36.296875 23.921875 -36.296875 C 21.085938 -36.296875 18.960938 -35.898438 17.546875 -35.109375 C 16.140625 -34.316406 15.4375 -33.300781 15.4375 -32.0625 C 15.4375 -30.644531 16.195312 -29.65625 17.71875 -29.09375 C 19.25 -28.53125 21.679688 -27.992188 25.015625 -27.484375 C 28.753906 -26.859375 31.804688 -26.191406 34.171875 -25.484375 C 36.546875 -24.773438 38.609375 -23.488281 40.359375 -21.625 C 42.117188 -19.757812 43 -17.160156 43 -13.828125 C 43 -10.992188 42.148438 -8.472656 40.453125 -6.265625 C 38.753906 -4.066406 36.28125 -2.359375 33.03125 -1.140625 C 29.78125 0.0664062 25.921875 0.671875 21.453125 0.671875 Z M 21.453125 0.671875 "/></g></g></g><g fill="#760000" fill-opacity="1"><g transform="translate(264.789652, 236.816997)"><g><path d="M 28.15625 0.671875 C 23.289062 0.671875 18.921875 -0.328125 15.046875 -2.328125 C 11.179688 -4.335938 8.160156 -7.125 5.984375 -10.6875 C 3.804688 -14.25 2.71875 -18.289062 2.71875 -22.8125 C 2.71875 -27.332031 3.804688 -31.375 5.984375 -34.9375 C 8.160156 -38.5 11.179688 -41.285156 15.046875 -43.296875 C 18.921875 -45.304688 23.289062 -46.3125 28.15625 -46.3125 C 32.957031 -46.3125 37.15625 -45.304688 40.75 -43.296875 C 44.34375 -41.285156 46.957031 -38.414062 48.59375 -34.6875 L 38.328125 -29.171875 C 35.953125 -33.359375 32.535156 -35.453125 28.078125 -35.453125 C 24.628906 -35.453125 21.769531 -34.320312 19.5 -32.0625 C 17.238281 -29.800781 16.109375 -26.71875 16.109375 -22.8125 C 16.109375 -18.914062 17.238281 -15.832031 19.5 -13.5625 C 21.769531 -11.300781 24.628906 -10.171875 28.078125 -10.171875 C 32.597656 -10.171875 36.015625 -12.265625 38.328125 -16.453125 L 48.59375 -10.859375 C 46.957031 -7.234375 44.34375 -4.40625 40.75 -2.375 C 37.15625 -0.34375 32.957031 0.671875 28.15625 0.671875 Z M 28.15625 0.671875 "/></g></g></g></svg>