<svg xmlns="http://www.w3.org/2000/svg" xmlns:xlink="http://www.w3.org/1999/xlink" width="500" zoomAndPan="magnify" viewBox="0 0 375 374.999991" height="500" preserveAspectRatio="xMidYMid meet" version="1.0"><defs><g/><clipPath id="50b99e1801"><path d="M 135 65 L 240 65 L 240 80.25 L 135 80.25 Z M 135 65 " clip-rule="nonzero"/></clipPath><clipPath id="ca20cf69b0"><path d="M 111.882812 0 L 263.382812 0 L 263.382812 71 L 111.882812 71 Z M 111.882812 0 " clip-rule="nonzero"/></clipPath></defs><g clip-path="url(#50b99e1801)"><path fill="#ffffff" d="M 187.640625 65.472656 C 187.636719 65.472656 187.632812 65.472656 187.632812 65.472656 C 187.628906 65.472656 187.625 65.472656 187.621094 65.472656 C 187.605469 65.472656 187.589844 65.472656 187.570312 65.472656 C 160.257812 65.472656 141.46875 69.371094 135.289062 72.863281 C 141.480469 76.335938 160.242188 80.222656 187.535156 80.253906 L 187.726562 80.253906 C 215.019531 80.222656 233.78125 76.335938 239.972656 72.863281 C 233.792969 69.371094 215.003906 65.472656 187.691406 65.472656 C 187.671875 65.472656 187.660156 65.472656 187.640625 65.472656 " fill-opacity="1" fill-rule="nonzero"/></g><g clip-path="url(#ca20cf69b0)"><path fill="#ffffff" d="M 255.796875 30.609375 C 254.425781 31.761719 254.628906 32.699219 254.25 33.742188 C 254.039062 34.316406 253.804688 35.0625 252.777344 35.96875 C 252.777344 35.96875 239.550781 49.703125 230.695312 46.761719 C 217.566406 42.40625 224.769531 25.46875 224.769531 25.46875 L 226.125 22.5 C 226.796875 21.019531 228.808594 20.410156 229.625 19.910156 C 231.105469 19.007812 231.597656 19.316406 232.472656 17.386719 C 233.898438 14.265625 232.566406 8.753906 232.136719 7.59375 C 230.875 8.253906 225.660156 11.144531 224.238281 14.269531 C 223.359375 16.199219 224.453125 17.320312 224.859375 18.777344 C 225.082031 19.582031 225.429688 20.617188 224.757812 22.097656 L 223.40625 25.070312 C 223.40625 25.070312 215.324219 41.339844 203.273438 41.445312 C 188.542969 41.578125 188.492188 17.550781 188.492188 17.550781 C 188.492188 15.785156 189.402344 14.800781 190.054688 14.027344 C 191.242188 12.617188 193.027344 11.773438 193.027344 9.46875 C 193.027344 5.835938 188.921875 1.335938 187.726562 0.0976562 L 187.726562 0.078125 C 187.703125 0.0507812 187.671875 0.0195312 187.652344 0 C 187.648438 0 187.644531 0.0078125 187.640625 0.0117188 C 187.636719 0.0078125 187.632812 0.00390625 187.632812 0 C 187.628906 0.00390625 187.625 0.0078125 187.621094 0.0117188 C 187.617188 0.0078125 187.613281 0 187.609375 0 C 187.589844 0.0195312 187.558594 0.0507812 187.535156 0.078125 L 187.535156 0.0976562 C 186.339844 1.335938 182.234375 5.835938 182.234375 9.46875 C 182.234375 11.773438 184.019531 12.617188 185.207031 14.027344 C 185.859375 14.800781 186.769531 15.785156 186.769531 17.550781 C 186.769531 17.550781 186.71875 41.578125 171.988281 41.445312 C 159.9375 41.339844 151.855469 25.070312 151.855469 25.070312 L 150.503906 22.097656 C 149.832031 20.617188 150.179688 19.582031 150.402344 18.777344 C 150.808594 17.320312 151.902344 16.199219 151.023438 14.269531 C 149.601562 11.144531 144.386719 8.253906 143.125 7.59375 C 142.695312 8.753906 141.363281 14.265625 142.789062 17.386719 C 143.664062 19.316406 144.15625 19.007812 145.636719 19.910156 C 146.453125 20.410156 148.464844 21.019531 149.136719 22.5 L 150.492188 25.46875 C 150.492188 25.46875 157.695312 42.40625 144.566406 46.761719 C 135.710938 49.703125 122.484375 35.96875 122.484375 35.96875 C 121.457031 35.0625 121.222656 34.316406 121.011719 33.742188 C 120.632812 32.699219 120.835938 31.761719 119.464844 30.609375 C 117.101562 28.621094 112.855469 27.4375 111.972656 27.226562 C 112.210938 28.070312 114.035156 32.128906 116.199219 34.035156 C 117.539062 35.214844 118.792969 34.820312 119.917969 35.511719 C 132.480469 43.253906 133.480469 70.261719 133.480469 70.261719 L 133.585938 70.261719 C 135.335938 66.136719 158.816406 61.953125 187.550781 61.953125 C 187.5625 61.953125 187.699219 61.953125 187.710938 61.953125 C 216.445312 61.953125 239.925781 66.136719 241.671875 70.261719 L 241.78125 70.261719 C 241.78125 70.261719 242.78125 43.253906 255.34375 35.511719 C 256.464844 34.820312 257.722656 35.214844 259.0625 34.035156 C 261.226562 32.128906 263.050781 28.070312 263.289062 27.226562 C 262.40625 27.4375 258.160156 28.621094 255.796875 30.609375 " fill-opacity="1" fill-rule="nonzero"/></g><g fill="#ffffff" fill-opacity="1"><g transform="translate(29.753909, 365.624976)"><g><path d="M 299.5 -133.5 C 299.5 -132.5 299 -125.5 298 -112.5 L 94.5 -112.5 C 98.164062 -95.832031 106.832031 -82.664062 120.5 -73 C 134.164062 -63.332031 151.164062 -58.5 171.5 -58.5 C 185.5 -58.5 197.914062 -60.582031 208.75 -64.75 C 219.582031 -68.914062 229.664062 -75.5 239 -84.5 L 280.5 -39.5 C 255.164062 -10.5 218.164062 4 169.5 4 C 139.164062 4 112.332031 -1.914062 89 -13.75 C 65.664062 -25.582031 47.664062 -42 35 -63 C 22.332031 -84 16 -107.832031 16 -134.5 C 16 -160.832031 22.25 -184.582031 34.75 -205.75 C 47.25 -226.914062 64.414062 -243.414062 86.25 -255.25 C 108.082031 -267.082031 132.5 -273 159.5 -273 C 185.832031 -273 209.664062 -267.332031 231 -256 C 252.332031 -244.664062 269.082031 -228.414062 281.25 -207.25 C 293.414062 -186.082031 299.5 -161.5 299.5 -133.5 Z M 160 -214 C 142.332031 -214 127.5 -209 115.5 -199 C 103.5 -189 96.164062 -175.332031 93.5 -158 L 226 -158 C 223.332031 -175 216 -188.582031 204 -198.75 C 192 -208.914062 177.332031 -214 160 -214 Z M 160 -214 "/></g></g></g></svg>